<?xml version="1.0" encoding="utf-8"?>
<!-- Generator: Adobe Illustrator 25.4.1, SVG Export Plug-In . SVG Version: 6.00 Build 0)  -->
<svg version="1.1" id="Capa_1" xmlns="http://www.w3.org/2000/svg" xmlns:xlink="http://www.w3.org/1999/xlink" x="0px" y="0px"
	 viewBox="0 0 200 100" style="enable-background:new 0 0 200 100;" xml:space="preserve">
<style type="text/css">
	.st0{fill:#2DCCCD;}
	.st1{fill:none;stroke:#FFFFFF;stroke-miterlimit:10;}
	.st2{fill:#FFFFFF;}
</style>
<g>
	<path class="st0" d="M18.5,86.45h-0.05c-0.77,1.31-2.14,1.88-3.68,1.88c-3.66,0-5.44-3.14-5.44-6.5c0-3.26,1.81-6.29,5.37-6.29
		c1.43,0,2.84,0.61,3.59,1.81h0.05v-6.1h3.33V88H18.5V86.45z M15.59,78.05c-2.18,0-2.93,1.88-2.93,3.87c0,1.9,0.87,3.9,2.93,3.9
		c2.21,0,2.86-1.92,2.86-3.92C18.45,79.92,17.74,78.05,15.59,78.05z"/>
	<path class="st0" d="M26.92,82.74c0.09,2.11,1.13,3.07,2.98,3.07c1.34,0,2.42-0.82,2.63-1.57h2.93c-0.94,2.86-2.93,4.08-5.68,4.08
		c-3.83,0-6.2-2.63-6.2-6.38c0-3.64,2.51-6.41,6.2-6.41c4.13,0,6.13,3.47,5.89,7.2H26.92z M32.34,80.63
		c-0.31-1.69-1.03-2.58-2.65-2.58c-2.11,0-2.72,1.64-2.77,2.58H32.34z"/>
	<path class="st0" d="M52.43,80.13c-0.21-1.36-1.08-2.09-2.46-2.09c-2.14,0-2.84,2.16-2.84,3.94c0,1.74,0.68,3.83,2.77,3.83
		c1.55,0,2.44-0.99,2.65-2.46h3.22c-0.42,3.22-2.65,4.98-5.84,4.98c-3.66,0-6.13-2.58-6.13-6.22c0-3.78,2.25-6.57,6.2-6.57
		c2.86,0,5.49,1.5,5.7,4.6H52.43z"/>
	<path class="st0" d="M63.53,75.54c3.83,0,6.29,2.53,6.29,6.41c0,3.85-2.46,6.38-6.29,6.38c-3.8,0-6.27-2.53-6.27-6.38
		C57.27,78.07,59.73,75.54,63.53,75.54z M63.53,85.81c2.28,0,2.96-1.95,2.96-3.87c0-1.95-0.68-3.9-2.96-3.9
		c-2.25,0-2.93,1.95-2.93,3.9C60.6,83.87,61.28,85.81,63.53,85.81z"/>
	<path class="st0" d="M71.98,75.86h3.17v1.69h0.07c0.84-1.36,2.3-2.02,3.71-2.02c3.54,0,4.44,1.99,4.44,5V88h-3.33v-6.85
		c0-1.99-0.59-2.98-2.14-2.98c-1.81,0-2.58,1.01-2.58,3.47V88h-3.33V75.86z"/>
	<path class="st0" d="M90.12,75.86h2.44v2.23h-2.44v6.01c0,1.13,0.28,1.41,1.41,1.41c0.35,0,0.68-0.02,1.03-0.09v2.6
		c-0.56,0.09-1.29,0.12-1.95,0.12c-2.04,0-3.83-0.47-3.83-2.89v-7.16h-2.02v-2.23h2.02v-3.64h3.33V75.86z"/>
	<path class="st0" d="M94.16,75.86h3.17v2.25h0.05c0.61-1.53,2.25-2.58,3.87-2.58c0.23,0,0.52,0.05,0.73,0.12v3.1
		c-0.31-0.07-0.8-0.12-1.2-0.12c-2.44,0-3.29,1.76-3.29,3.9V88h-3.33V75.86z"/>
	<path class="st0" d="M103.15,79.6c0.19-3.12,2.98-4.06,5.7-4.06c2.42,0,5.33,0.54,5.33,3.45v6.31c0,1.1,0.12,2.21,0.42,2.7h-3.38
		c-0.12-0.38-0.21-0.77-0.23-1.17c-1.06,1.1-2.6,1.5-4.08,1.5c-2.3,0-4.13-1.15-4.13-3.64c0-2.75,2.07-3.4,4.13-3.68
		c2.04-0.31,3.94-0.23,3.94-1.6c0-1.43-0.99-1.64-2.16-1.64c-1.27,0-2.09,0.52-2.21,1.83H103.15z M110.85,82.06
		c-0.56,0.49-1.74,0.52-2.77,0.7c-1.03,0.21-1.97,0.56-1.97,1.78c0,1.24,0.96,1.55,2.04,1.55c2.6,0,2.7-2.07,2.7-2.79V82.06z"/>
	<path class="st0" d="M125.02,80.13c-0.21-1.36-1.08-2.09-2.46-2.09c-2.14,0-2.84,2.16-2.84,3.94c0,1.74,0.68,3.83,2.77,3.83
		c1.55,0,2.44-0.99,2.65-2.46h3.22c-0.42,3.22-2.65,4.98-5.84,4.98c-3.66,0-6.13-2.58-6.13-6.22c0-3.78,2.25-6.57,6.2-6.57
		c2.86,0,5.49,1.5,5.7,4.6H125.02z"/>
	<path class="st0" d="M130.09,79.6c0.19-3.12,2.98-4.06,5.7-4.06c2.42,0,5.33,0.54,5.33,3.45v6.31c0,1.1,0.12,2.21,0.42,2.7h-3.38
		c-0.12-0.38-0.21-0.77-0.23-1.17c-1.06,1.1-2.6,1.5-4.08,1.5c-2.3,0-4.13-1.15-4.13-3.64c0-2.75,2.07-3.4,4.13-3.68
		c2.04-0.31,3.94-0.23,3.94-1.6c0-1.43-0.99-1.64-2.16-1.64c-1.27,0-2.09,0.52-2.21,1.83H130.09z M137.79,82.06
		c-0.56,0.49-1.74,0.52-2.77,0.7c-1.03,0.21-1.97,0.56-1.97,1.78c0,1.24,0.96,1.55,2.04,1.55c2.6,0,2.7-2.07,2.7-2.79V82.06z"/>
	<path class="st0" d="M143.71,75.86h3.17v2.25h0.05c0.61-1.53,2.25-2.58,3.87-2.58c0.23,0,0.52,0.05,0.73,0.12v3.1
		c-0.31-0.07-0.8-0.12-1.2-0.12c-2.44,0-3.29,1.76-3.29,3.9V88h-3.33V75.86z"/>
	<path class="st0" d="M164.5,87.22c0,1.99-0.7,5.37-6.29,5.37c-2.39,0-5.19-1.13-5.35-3.9h3.31c0.31,1.24,1.31,1.67,2.49,1.67
		c1.85,0,2.7-1.27,2.68-3v-1.6h-0.05c-0.73,1.27-2.18,1.88-3.64,1.88c-3.64,0-5.19-2.77-5.19-6.1c0-3.14,1.81-6.01,5.21-6.01
		c1.6,0,2.82,0.54,3.61,1.95h0.05v-1.62h3.17V87.22z M161.33,81.78c0-1.97-0.68-3.73-2.84-3.73c-1.88,0-2.7,1.64-2.7,3.45
		c0,1.74,0.66,3.64,2.7,3.64C160.39,85.13,161.33,83.51,161.33,81.78z"/>
	<path class="st0" d="M173.07,75.54c3.83,0,6.29,2.53,6.29,6.41c0,3.85-2.46,6.38-6.29,6.38c-3.8,0-6.27-2.53-6.27-6.38
		C166.8,78.07,169.26,75.54,173.07,75.54z M173.07,85.81c2.28,0,2.96-1.95,2.96-3.87c0-1.95-0.68-3.9-2.96-3.9
		c-2.25,0-2.93,1.95-2.93,3.9C170.13,83.87,170.81,85.81,173.07,85.81z"/>
	<path class="st0" d="M184.1,84.05c0.02,1.45,1.24,2.04,2.56,2.04c0.96,0,2.18-0.38,2.18-1.55c0-1.01-1.38-1.36-3.78-1.88
		c-1.92-0.42-3.85-1.1-3.85-3.24c0-3.1,2.68-3.9,5.28-3.9c2.65,0,5.09,0.89,5.35,3.87h-3.17c-0.09-1.29-1.08-1.64-2.28-1.64
		c-0.75,0-1.85,0.14-1.85,1.13c0,1.2,1.88,1.36,3.78,1.81c1.95,0.45,3.85,1.15,3.85,3.4c0,3.19-2.77,4.22-5.54,4.22
		c-2.82,0-5.56-1.06-5.7-4.27H184.1z"/>
</g>
<circle class="st0" cx="167.77" cy="42.68" r="9.33"/>
<g>
	<path class="st1" d="M169.81,39.83h-3.14c-0.27,0-0.53,0.11-0.75,0.32c-0.4,0.38-0.85,1.09-0.26,2.04
		c0.26,0.41,0.66,0.64,1.07,0.64l1.8,0c0.19,0,0.38,0.06,0.55,0.18c0.46,0.32,1.19,1.07,0.28,2.19c-0.25,0.31-0.58,0.47-0.92,0.47
		l-3.14,0"/>
	<line class="st1" x1="167.8" y1="38.16" x2="167.8" y2="39.66"/>
	<line class="st1" x1="167.8" y1="46" x2="167.8" y2="47.51"/>
</g>
<g>
	<g>
		<path class="st2" d="M9,19.77h21.38c8.65,0,14.51,2.8,14.51,11.26c0,4.45-2.23,7.57-6.17,9.48c5.54,1.59,8.33,5.85,8.33,11.52
			c0,9.23-7.83,13.17-16.03,13.17H9V19.77z M18.99,38.16h10.12c3.5,0,6.11-1.59,6.11-5.41c0-4.33-3.31-5.22-6.87-5.22h-9.35V38.16z
			 M18.99,57.44h10.69c3.94,0,7.38-1.27,7.38-5.98c0-4.64-2.93-6.49-7.19-6.49H18.99V57.44z"/>
		<path class="st2" d="M92.35,48.02c0,12.28-7.25,18.26-19.41,18.26c-12.22,0-19.34-5.92-19.34-18.26V19.77h9.99v28.25
			c0,4.96,1.27,9.86,9.35,9.86c7.13,0,9.42-3.12,9.42-9.86V19.77h9.99V48.02z"/>
		<path class="st2" d="M100.93,19.77h24.5c8.14,0,13.3,5.66,13.3,12.53c0,5.34-2.16,9.35-7.19,11.39v0.13
			c4.9,1.27,6.3,6.04,6.62,10.63c0.19,2.86,0.13,8.21,1.91,10.75h-9.99c-1.21-2.86-1.08-7.25-1.59-10.88
			c-0.7-4.77-2.55-6.87-7.57-6.87h-9.99V65.2h-9.99V19.77z M110.92,40.32h10.94c4.45,0,6.87-1.91,6.87-6.49
			c0-4.39-2.42-6.3-6.87-6.3h-10.94V40.32z"/>
	</g>
</g>
<path class="st2" d="M193.3,29.85l-11.52-3.42l-3.9,11.8l5.19-2.82c0.94,2.21,1.47,4.66,1.47,7.25c0,9.79-7.49,17.73-16.73,17.73
	c-9.24,0-16.73-7.94-16.73-17.73s7.49-17.73,16.73-17.73c2.67,0,5.19,0.67,7.43,1.85l2.12-3.68l8.24-13.1l-9.95,10.5
	c-2.43-0.93-5.05-1.44-7.78-1.44c-12.44,0-22.53,10.5-22.53,23.46c0,12.96,10.09,23.46,22.53,23.46c12.44,0,22.53-10.5,22.53-23.46
	c0-3.56-0.76-6.93-2.12-9.95L193.3,29.85z"/>
</svg>
