<?xml version="1.0" encoding="utf-8"?>
<!-- Generator: Adobe Illustrator 25.4.1, SVG Export Plug-In . SVG Version: 6.00 Build 0)  -->
<svg version="1.1" id="Capa_1" xmlns="http://www.w3.org/2000/svg" xmlns:xlink="http://www.w3.org/1999/xlink" x="0px" y="0px"
	 viewBox="0 0 393.94 152.97" style="enable-background:new 0 0 393.94 152.97;" xml:space="preserve">
<style type="text/css">
	.st0{fill:#2DCCCD;}
	.st1{fill:none;stroke:#FFFFFF;stroke-miterlimit:10;}
	.st2{fill:#FFFFFF;}
</style>
<g>
	<g>
		<path class="st0" d="M79.08,126.81h-0.07c-1.15,1.96-3.18,2.8-5.49,2.8c-5.45,0-8.11-4.68-8.11-9.68c0-4.86,2.69-9.37,8-9.37
			c2.13,0,4.23,0.91,5.35,2.69h0.07v-9.09h4.96v24.95h-4.72V126.81z M74.75,114.3c-3.25,0-4.37,2.8-4.37,5.77
			c0,2.83,1.29,5.8,4.37,5.8c3.29,0,4.26-2.87,4.26-5.84C79.01,117.1,77.96,114.3,74.75,114.3z"/>
		<path class="st0" d="M91.63,121.29c0.14,3.15,1.68,4.58,4.44,4.58c1.99,0,3.6-1.22,3.91-2.34h4.37c-1.4,4.26-4.37,6.08-8.46,6.08
			c-5.7,0-9.23-3.91-9.23-9.51c0-5.42,3.74-9.54,9.23-9.54c6.15,0,9.12,5.17,8.77,10.73H91.63z M99.7,118.15
			c-0.45-2.52-1.54-3.84-3.95-3.84c-3.15,0-4.05,2.45-4.12,3.84H99.7z"/>
		<path class="st0" d="M129.62,117.41c-0.31-2.03-1.61-3.11-3.67-3.11c-3.18,0-4.23,3.21-4.23,5.87c0,2.59,1.01,5.7,4.12,5.7
			c2.31,0,3.63-1.47,3.95-3.67h4.79c-0.63,4.79-3.95,7.41-8.7,7.41c-5.45,0-9.12-3.84-9.12-9.26c0-5.63,3.35-9.79,9.23-9.79
			c4.26,0,8.18,2.24,8.49,6.85H129.62z"/>
		<path class="st0" d="M146.15,110.56c5.7,0,9.37,3.77,9.37,9.54c0,5.73-3.67,9.51-9.37,9.51c-5.66,0-9.33-3.77-9.33-9.51
			C136.82,114.34,140.49,110.56,146.15,110.56z M146.15,125.87c3.39,0,4.4-2.9,4.4-5.77c0-2.9-1.01-5.8-4.4-5.8
			c-3.35,0-4.37,2.9-4.37,5.8C141.78,122.97,142.8,125.87,146.15,125.87z"/>
		<path class="st0" d="M158.73,111.05h4.72v2.52h0.1c1.26-2.03,3.42-3.01,5.52-3.01c5.28,0,6.61,2.97,6.61,7.44v11.11h-4.96v-10.2
			c0-2.97-0.87-4.44-3.18-4.44c-2.69,0-3.84,1.5-3.84,5.17v9.47h-4.96V111.05z"/>
		<path class="st0" d="M185.75,111.05h3.63v3.32h-3.63v8.95c0,1.68,0.42,2.1,2.1,2.1c0.52,0,1.01-0.03,1.54-0.14v3.88
			c-0.84,0.14-1.92,0.17-2.9,0.17c-3.04,0-5.7-0.7-5.7-4.3v-10.66h-3.01v-3.32h3.01v-5.42h4.96V111.05z"/>
		<path class="st0" d="M191.76,111.05h4.72v3.36h0.07c0.91-2.27,3.35-3.84,5.77-3.84c0.35,0,0.77,0.07,1.08,0.17v4.61
			c-0.45-0.1-1.19-0.17-1.78-0.17c-3.63,0-4.89,2.62-4.89,5.8v8.14h-4.96V111.05z"/>
		<path class="st0" d="M205.15,116.61c0.28-4.65,4.44-6.05,8.49-6.05c3.6,0,7.93,0.8,7.93,5.14v9.4c0,1.64,0.17,3.29,0.63,4.02
			h-5.03c-0.17-0.56-0.31-1.15-0.35-1.75c-1.57,1.64-3.88,2.24-6.08,2.24c-3.42,0-6.15-1.71-6.15-5.42c0-4.09,3.08-5.07,6.15-5.49
			c3.04-0.45,5.87-0.35,5.87-2.38c0-2.13-1.47-2.45-3.22-2.45c-1.89,0-3.11,0.77-3.28,2.73H205.15z M216.61,120.28
			c-0.84,0.73-2.59,0.77-4.12,1.05c-1.54,0.31-2.94,0.84-2.94,2.66c0,1.85,1.43,2.31,3.04,2.31c3.88,0,4.02-3.08,4.02-4.16V120.28z"
			/>
		<path class="st0" d="M237.72,117.41c-0.31-2.03-1.61-3.11-3.67-3.11c-3.18,0-4.23,3.21-4.23,5.87c0,2.59,1.01,5.7,4.12,5.7
			c2.31,0,3.63-1.47,3.95-3.67h4.79c-0.63,4.79-3.95,7.41-8.7,7.41c-5.45,0-9.12-3.84-9.12-9.26c0-5.63,3.35-9.79,9.23-9.79
			c4.26,0,8.18,2.24,8.49,6.85H237.72z"/>
		<path class="st0" d="M245.27,116.61c0.28-4.65,4.44-6.05,8.49-6.05c3.6,0,7.93,0.8,7.93,5.14v9.4c0,1.64,0.17,3.29,0.63,4.02
			h-5.03c-0.17-0.56-0.31-1.15-0.35-1.75c-1.57,1.64-3.88,2.24-6.08,2.24c-3.42,0-6.15-1.71-6.15-5.42c0-4.09,3.08-5.07,6.15-5.49
			c3.04-0.45,5.87-0.35,5.87-2.38c0-2.13-1.47-2.45-3.22-2.45c-1.89,0-3.11,0.77-3.28,2.73H245.27z M256.73,120.28
			c-0.84,0.73-2.59,0.77-4.12,1.05c-1.54,0.31-2.94,0.84-2.94,2.66c0,1.85,1.43,2.31,3.04,2.31c3.88,0,4.02-3.08,4.02-4.16V120.28z"
			/>
		<path class="st0" d="M265.54,111.05h4.72v3.36h0.07c0.91-2.27,3.36-3.84,5.77-3.84c0.35,0,0.77,0.07,1.08,0.17v4.61
			c-0.45-0.1-1.19-0.17-1.78-0.17c-3.63,0-4.89,2.62-4.89,5.8v8.14h-4.96V111.05z"/>
		<path class="st0" d="M296.51,127.97c0,2.97-1.05,8-9.37,8c-3.56,0-7.72-1.68-7.97-5.8h4.93c0.45,1.85,1.96,2.48,3.7,2.48
			c2.76,0,4.02-1.89,3.98-4.47v-2.38h-0.07c-1.08,1.89-3.25,2.8-5.42,2.8c-5.42,0-7.72-4.12-7.72-9.09c0-4.68,2.69-8.95,7.76-8.95
			c2.38,0,4.19,0.8,5.38,2.9h0.07v-2.41h4.72V127.97z M291.79,119.86c0-2.94-1.01-5.56-4.23-5.56c-2.8,0-4.02,2.45-4.02,5.14
			c0,2.59,0.98,5.42,4.02,5.42C290.39,124.86,291.79,122.45,291.79,119.86z"/>
		<path class="st0" d="M309.26,110.56c5.7,0,9.37,3.77,9.37,9.54c0,5.73-3.67,9.51-9.37,9.51c-5.66,0-9.33-3.77-9.33-9.51
			C299.93,114.34,303.6,110.56,309.26,110.56z M309.26,125.87c3.39,0,4.4-2.9,4.4-5.77c0-2.9-1.01-5.8-4.4-5.8
			c-3.36,0-4.37,2.9-4.37,5.8C304.89,122.97,305.91,125.87,309.26,125.87z"/>
		<path class="st0" d="M325.69,123.25c0.03,2.17,1.85,3.04,3.81,3.04c1.43,0,3.25-0.56,3.25-2.31c0-1.5-2.06-2.03-5.63-2.8
			c-2.87-0.63-5.73-1.64-5.73-4.82c0-4.61,3.98-5.8,7.86-5.8c3.95,0,7.58,1.33,7.97,5.77h-4.72c-0.14-1.92-1.61-2.45-3.39-2.45
			c-1.12,0-2.76,0.21-2.76,1.68c0,1.78,2.8,2.03,5.63,2.69c2.9,0.66,5.73,1.71,5.73,5.07c0,4.75-4.12,6.29-8.25,6.29
			c-4.19,0-8.28-1.57-8.49-6.36H325.69z"/>
	</g>
	<circle class="st0" cx="301.37" cy="61.64" r="13.9"/>
	<g>
		<path class="st1" d="M304.41,57.39h-4.67c-0.4,0-0.8,0.16-1.12,0.48c-0.59,0.57-1.27,1.63-0.39,3.04
			c0.39,0.62,0.98,0.96,1.59,0.96h2.67c0.29,0,0.57,0.09,0.82,0.27c0.68,0.48,1.76,1.59,0.42,3.26c-0.37,0.45-0.86,0.69-1.37,0.69
			l-4.67,0"/>
		<line class="st1" x1="301.43" y1="54.91" x2="301.43" y2="57.15"/>
		<line class="st1" x1="301.43" y1="66.59" x2="301.43" y2="68.82"/>
	</g>
	<g>
		<g>
			<path class="st2" d="M64.94,27.52h31.84c12.89,0,21.6,4.17,21.6,16.77c0,6.63-3.32,11.27-9.19,14.12
				c8.24,2.37,12.41,8.72,12.41,17.15c0,13.74-11.65,19.61-23.88,19.61H64.94V27.52z M79.82,54.91h15.06c5.21,0,9.1-2.37,9.1-8.05
				c0-6.44-4.93-7.77-10.23-7.77H79.82V54.91z M79.82,83.62h15.92c5.87,0,10.99-1.89,10.99-8.91c0-6.92-4.36-9.66-10.71-9.66h-16.2
				V83.62z"/>
			<path class="st2" d="M189.06,69.59c0,18.29-10.8,27.19-28.9,27.19c-18.19,0-28.8-8.81-28.8-27.19V27.52h14.88v42.07
				c0,7.39,1.89,14.69,13.93,14.69c10.61,0,14.02-4.64,14.02-14.69V27.52h14.88V69.59z"/>
			<path class="st2" d="M201.85,27.52h36.48c12.13,0,19.8,8.43,19.8,18.67c0,7.96-3.22,13.93-10.71,16.96v0.19
				c7.3,1.89,9.38,9,9.85,15.82c0.28,4.26,0.19,12.22,2.84,16.01h-14.88c-1.8-4.26-1.61-10.8-2.37-16.2
				c-1.04-7.11-3.79-10.23-11.28-10.23h-14.88v26.44h-14.88V27.52z M216.72,58.13h16.3c6.63,0,10.23-2.84,10.23-9.66
				c0-6.54-3.6-9.38-10.23-9.38h-16.3V58.13z"/>
		</g>
	</g>
	<path class="st2" d="M339.4,42.53l-17.16-5.09l-5.8,17.57l7.73-4.2c1.4,3.3,2.18,6.95,2.18,10.79c0,14.58-11.15,26.4-24.91,26.4
		c-13.76,0-24.91-11.82-24.91-26.4s11.15-26.4,24.91-26.4c3.98,0,7.73,0.99,11.06,2.75l3.16-5.47l12.27-19.51l-14.81,15.64
		c-3.61-1.39-7.52-2.14-11.59-2.14c-18.53,0-33.55,15.64-33.55,34.94c0,19.3,15.02,34.94,33.55,34.94s33.55-15.64,33.55-34.94
		c0-5.3-1.14-10.32-3.16-14.81L339.4,42.53z"/>
</g>
</svg>
